<?xml version="1.0" encoding="UTF-8" standalone="no"?>
<svg
   xmlns:dc="http://purl.org/dc/elements/1.1/"
   xmlns:cc="http://creativecommons.org/ns#"
   xmlns:rdf="http://www.w3.org/1999/02/22-rdf-syntax-ns#"
   xmlns:svg="http://www.w3.org/2000/svg"
   xmlns="http://www.w3.org/2000/svg"
   xmlns:sodipodi="http://sodipodi.sourceforge.net/DTD/sodipodi-0.dtd"
   xmlns:inkscape="http://www.inkscape.org/namespaces/inkscape"
   width="67.973mm"
   height="12.986mm"
   viewBox="0 0 67.973 12.986"
   version="1.1"
   id="svg8"
   inkscape:version="1.0.1 (0767f8302a, 2020-10-17)"
   sodipodi:docname="where.svg">
  <defs
     id="defs2">
    <rect
       x="-20.95484"
       y="101.70363"
       width="151.22839"
       height="44.386803"
       id="rect835" />
  </defs>
  <sodipodi:namedview
     id="base"
     pagecolor="#ffffff"
     bordercolor="#666666"
     borderopacity="1.0"
     inkscape:pageopacity="0.0"
     inkscape:pageshadow="2"
     inkscape:zoom="0.76"
     inkscape:cx="400"
     inkscape:cy="557.68797"
     inkscape:document-units="mm"
     inkscape:current-layer="layer1"
     inkscape:document-rotation="0"
     showgrid="false"
     inkscape:window-width="1859"
     inkscape:window-height="1056"
     inkscape:window-x="61"
     inkscape:window-y="24"
     inkscape:window-maximized="1" />
  <metadata
     id="metadata5">
    <rdf:RDF>
      <cc:Work
         rdf:about="">
        <dc:format>image/svg+xml</dc:format>
        <dc:type
           rdf:resource="http://purl.org/dc/dcmitype/StillImage" />
        <dc:title></dc:title>
      </cc:Work>
    </rdf:RDF>
  </metadata>
  <g
     inkscape:label="Layer 1"
     inkscape:groupmode="layer"
     id="layer1">
    <g
       aria-label="where?!"
       transform="translate(20.25317,-104.76115)"
       id="text833"
       style="font-style:normal;font-variant:normal;font-weight:normal;font-stretch:normal;font-size:16.9333px;line-height:1.25;font-family:Rubik;-inkscape-font-specification:Rubik;white-space:pre;shape-inside:url(#rect835);fill:none;stroke:#ffffff;stroke-width:0.79375;stroke-miterlimit:4;stroke-dasharray:none;stroke-opacity:1">
      <path
         d="m -18.601349,117.18066 q -0.237067,0 -0.338666,-0.11853 -0.1016,-0.13547 -0.118534,-0.3048 l -0.795865,-7.89092 q -0.01693,-0.18627 0.118533,-0.33866 0.135467,-0.1524 0.3556,-0.1524 h 1.676396 q 0.220133,0 0.321733,0.11853 0.1016,0.1016 0.118533,0.23706 l 0.406399,4.84293 2.539995,-4.82599 q 0.0508,-0.11854 0.2032,-0.23707 0.1524,-0.13546 0.389466,-0.13546 h 1.134531 q 0.237066,0 0.321733,0.13546 0.1016,0.11853 0.118533,0.23707 l 0.507999,4.82599 2.4553284,-4.84293 q 0.067733,-0.11853 0.2031996,-0.23706 0.1354664,-0.11853 0.3555993,-0.11853 h 1.8965296 q 0.2370662,0 0.2709328,0.16933 0.0508,0.1524 -0.033867,0.33866 l -4.0978591,7.87399 q -0.08467,0.16933 -0.237066,0.3048 -0.152399,0.11853 -0.389466,0.11853 h -1.54093 q -0.237066,0 -0.355599,-0.11853 -0.1016,-0.13547 -0.135467,-0.3048 l -0.677332,-4.63973 -2.523061,4.63973 q -0.1016,0.16933 -0.254,0.3048 -0.1524,0.11853 -0.406399,0.11853 z"
         style="font-style:normal;font-variant:normal;font-weight:normal;font-stretch:normal;font-size:16.9333px;font-family:Rubik;-inkscape-font-specification:Rubik;fill:none;stroke:#ffffff;stroke-width:0.79375;stroke-miterlimit:4;stroke-dasharray:none;stroke-opacity:1"
         id="path857" />
      <path
         d="m -6.3612197,117.18066 q -0.1862663,0 -0.2878661,-0.11853 -0.1015998,-0.13547 -0.067733,-0.3048 l 2.3875954,-11.17598 q 0.033867,-0.18627 0.169333,-0.3048 0.1523997,-0.11853 0.338666,-0.11853 h 2.1674624 q 0.1862663,0 0.2709328,0.11853 0.1015998,0.11853 0.067733,0.3048 l -0.7958651,3.77613 q 0.5249323,-0.52494 1.18533096,-0.82973 0.677332,-0.32174 1.5578636,-0.32174 1.03293134,0 1.74412994,0.44027 0.7281319,0.44026 0.9990647,1.28693 0.2878661,0.84666 0.016933,2.09973 l -0.9990647,4.72439 q -0.033867,0.16933 -0.1862663,0.3048 -0.1523997,0.11853 -0.3217327,0.11853 h -2.18439574 q -0.1862663,0 -0.2878661,-0.11853 -0.1015998,-0.13547 -0.0677332,-0.3048 l 0.9821314,-4.62279 q 0.169333,-0.79587 -0.0846665,-1.2192 -0.2539995,-0.44027 -0.9821314,-0.44027 -0.47413236,0 -0.88053156,0.18627 -0.3894659,0.18627 -0.6942653,0.57573 -0.2878661,0.37254 -0.4063992,0.89747 l -0.9651981,4.62279 q -0.033867,0.16933 -0.1862663,0.3048 -0.1354664,0.11853 -0.3217327,0.11853 z"
         style="font-style:normal;font-variant:normal;font-weight:normal;font-stretch:normal;font-size:16.9333px;font-family:Rubik;-inkscape-font-specification:Rubik;fill:none;stroke:#ffffff;stroke-width:0.79375;stroke-miterlimit:4;stroke-dasharray:none;stroke-opacity:1"
         id="path859" />
      <path
         d="m 8.4789651,117.34999 q -1.3207974,0 -2.2182623,-0.47413 -0.8805316,-0.49106 -1.2191976,-1.45626 -0.3217327,-0.9652 -0.067733,-2.37066 0.033867,-0.11854 0.067733,-0.3048 0.033867,-0.18627 0.067733,-0.28787 0.338666,-1.33773 1.0837312,-2.28599 0.7450652,-0.9652 1.8287964,-1.45627 1.0837312,-0.508 2.387595,-0.508 1.490131,0 2.336796,0.59267 0.863598,0.59266 1.134531,1.60866 0.270933,1.016 0,2.31986 l -0.08467,0.4064 q -0.0508,0.18627 -0.203199,0.3048 -0.1524,0.11854 -0.321733,0.11854 H 7.852433 q 0,0.0169 -0.016933,0.0508 0,0.0339 -0.016933,0.0677 -0.084666,0.49106 -0.016933,0.89746 0.067733,0.4064 0.338666,0.64347 0.2709328,0.23706 0.7281319,0.23706 0.338666,0 0.5757322,-0.1016 0.2539995,-0.11853 0.4402658,-0.25399 0.186266,-0.1524 0.304799,-0.254 0.186267,-0.18627 0.287866,-0.22014 0.1016,-0.0508 0.3048,-0.0508 h 2.099729 q 0.169333,0 0.254,0.1016 0.08467,0.1016 0.03387,0.27094 -0.08467,0.28786 -0.440266,0.69426 -0.338666,0.4064 -0.948264,0.8128 -0.609599,0.38947 -1.439331,0.64346 -0.8297316,0.254 -1.8626629,0.254 z M 8.2080323,111.88054 H 11.06976 l 0.01693,-0.0339 q 0.118533,-0.5588 0.01693,-0.94826 -0.08467,-0.4064 -0.3556,-0.62654 -0.270933,-0.22013 -0.728132,-0.22013 -0.4571987,0 -0.8297313,0.22013 -0.3555993,0.22014 -0.6095988,0.62654 -0.2370662,0.38946 -0.3555993,0.94826 z"
         style="font-style:normal;font-variant:normal;font-weight:normal;font-stretch:normal;font-size:16.9333px;font-family:Rubik;-inkscape-font-specification:Rubik;fill:none;stroke:#ffffff;stroke-width:0.79375;stroke-miterlimit:4;stroke-dasharray:none;stroke-opacity:1"
         id="path861" />
      <path
         d="m 14.673115,117.18066 q -0.186266,0 -0.287866,-0.11853 -0.101599,-0.13547 -0.06773,-0.3048 l 1.69333,-7.95865 q 0.03387,-0.16934 0.186266,-0.28787 0.1524,-0.13546 0.338666,-0.13546 h 1.94733 q 0.186266,0 0.270933,0.13546 0.1016,0.11853 0.06773,0.28787 l -0.135466,0.67733 q 0.406399,-0.508 1.015998,-0.79587 0.609598,-0.30479 1.523997,-0.30479 h 0.948264 q 0.186267,0 0.270933,0.11853 0.08467,0.11853 0.0508,0.3048 l -0.355599,1.74413 q -0.03387,0.16933 -0.186267,0.3048 -0.152399,0.11853 -0.338666,0.11853 h -1.625596 q -0.711199,0 -1.168398,0.38947 -0.457199,0.37253 -0.609599,1.06679 l -0.914398,4.33493 q -0.03387,0.16933 -0.186266,0.3048 -0.1524,0.11853 -0.338666,0.11853 z"
         style="font-style:normal;font-variant:normal;font-weight:normal;font-stretch:normal;font-size:16.9333px;font-family:Rubik;-inkscape-font-specification:Rubik;fill:none;stroke:#ffffff;stroke-width:0.79375;stroke-miterlimit:4;stroke-dasharray:none;stroke-opacity:1"
         id="path863" />
      <path
         d="m 26.139869,117.34999 q -1.320797,0 -2.218262,-0.47413 -0.880532,-0.49106 -1.219198,-1.45626 -0.321733,-0.9652 -0.06773,-2.37066 0.03387,-0.11854 0.06773,-0.3048 0.03387,-0.18627 0.06773,-0.28787 0.338666,-1.33773 1.083732,-2.28599 0.745065,-0.9652 1.828796,-1.45627 1.083731,-0.508 2.387595,-0.508 1.490131,0 2.336796,0.59267 0.863598,0.59266 1.134531,1.60866 0.270933,1.016 0,2.31986 l -0.08467,0.4064 q -0.0508,0.18627 -0.203199,0.3048 -0.1524,0.11854 -0.321733,0.11854 h -5.418656 q 0,0.0169 -0.01693,0.0508 0,0.0339 -0.01693,0.0677 -0.08467,0.49106 -0.01693,0.89746 0.06773,0.4064 0.338666,0.64347 0.270933,0.23706 0.728132,0.23706 0.338666,0 0.575732,-0.1016 0.254,-0.11853 0.440266,-0.25399 0.186266,-0.1524 0.304799,-0.254 0.186267,-0.18627 0.287866,-0.22014 0.1016,-0.0508 0.3048,-0.0508 h 2.099729 q 0.169333,0 0.254,0.1016 0.08467,0.1016 0.03387,0.27094 -0.08467,0.28786 -0.440266,0.69426 -0.338666,0.4064 -0.948264,0.8128 -0.609599,0.38947 -1.439331,0.64346 -0.829732,0.254 -1.862663,0.254 z m -0.270933,-5.46945 h 2.861728 l 0.01693,-0.0339 q 0.118533,-0.5588 0.01693,-0.94826 -0.08467,-0.4064 -0.3556,-0.62654 -0.270933,-0.22013 -0.728132,-0.22013 -0.457199,0 -0.829731,0.22013 -0.3556,0.22014 -0.609599,0.62654 -0.237066,0.38946 -0.355599,0.94826 z"
         style="font-style:normal;font-variant:normal;font-weight:normal;font-stretch:normal;font-size:16.9333px;font-family:Rubik;-inkscape-font-specification:Rubik;fill:none;stroke:#ffffff;stroke-width:0.79375;stroke-miterlimit:4;stroke-dasharray:none;stroke-opacity:1"
         id="path865" />
      <path
         d="m 35.856146,113.5908 q -0.135467,0 -0.220133,-0.0847 -0.06773,-0.1016 -0.0508,-0.23707 0.01693,-0.1016 0.03387,-0.2032 0.03387,-0.1016 0.06773,-0.18627 0.203199,-0.59266 0.609599,-1.06679 0.406399,-0.49107 0.880531,-0.89747 0.474133,-0.4064 0.931332,-0.762 0.457199,-0.3556 0.778932,-0.69426 0.338666,-0.3556 0.440265,-0.7112 0.118533,-0.37253 -0.01693,-0.62653 -0.118533,-0.254 -0.406399,-0.38947 -0.270933,-0.13547 -0.626532,-0.13547 -0.677332,0 -1.151465,0.32174 -0.457199,0.32173 -0.745065,0.94826 -0.1016,0.18627 -0.253999,0.3048 -0.135467,0.1016 -0.372533,0.1016 h -2.065863 q -0.169333,0 -0.253999,-0.11853 -0.08467,-0.13547 -0.0508,-0.33867 0.169333,-0.67733 0.609599,-1.3208 0.457199,-0.64346 1.168398,-1.16839 0.711198,-0.54187 1.676396,-0.84667 0.965198,-0.32173 2.150529,-0.32173 1.269998,0 2.031996,0.3048 0.761999,0.3048 1.151465,0.79586 0.389466,0.49107 0.457199,1.04987 0.08467,0.54186 -0.01693,1.016 -0.1524,0.60959 -0.474133,1.10066 -0.321733,0.49107 -0.745065,0.9144 -0.423333,0.4064 -0.863598,0.79586 -0.440266,0.37254 -0.829732,0.762 -0.389466,0.37253 -0.643465,0.79587 -0.0508,0.11853 -0.118534,0.23706 -0.0508,0.1016 -0.101599,0.22014 -0.135467,0.22013 -0.270933,0.33866 -0.135467,0.1016 -0.338666,0.1016 z m -0.728132,3.58986 q -0.186266,0 -0.287866,-0.11853 -0.08467,-0.13547 -0.0508,-0.3048 l 0.406399,-1.9304 q 0.03387,-0.16933 0.186266,-0.28786 0.1524,-0.13547 0.338666,-0.13547 h 2.167463 q 0.186266,0 0.287866,0.13547 0.1016,0.11853 0.06773,0.28786 l -0.423332,1.9304 q -0.03387,0.16933 -0.186267,0.3048 -0.152399,0.11853 -0.338666,0.11853 z"
         style="font-style:normal;font-variant:normal;font-weight:normal;font-stretch:normal;font-size:16.9333px;font-family:Rubik;-inkscape-font-specification:Rubik;fill:none;stroke:#ffffff;stroke-width:0.79375;stroke-miterlimit:4;stroke-dasharray:none;stroke-opacity:1"
         id="path867" />
      <path
         d="m 43.300977,113.4384 q -0.186266,0 -0.287866,-0.11853 -0.08467,-0.13547 -0.0508,-0.3048 l 1.557864,-7.26439 q 0.03387,-0.18626 0.169333,-0.3048 0.152399,-0.11853 0.338666,-0.11853 h 1.947329 q 0.169333,0 0.270933,0.11853 0.1016,0.11854 0.06773,0.3048 l -1.54093,7.26439 q -0.03387,0.16933 -0.186266,0.3048 -0.1524,0.11853 -0.338666,0.11853 z m -0.863598,3.74226 q -0.169333,0 -0.270933,-0.11853 -0.1016,-0.13547 -0.06773,-0.3048 l 0.440266,-2.0828 q 0.03387,-0.18626 0.186266,-0.3048 0.1524,-0.13546 0.338666,-0.13546 h 2.082796 q 0.169333,0 0.270933,0.13546 0.101599,0.11854 0.06773,0.3048 l -0.440266,2.0828 q -0.03387,0.16933 -0.186266,0.3048 -0.1524,0.11853 -0.338666,0.11853 z"
         style="font-style:normal;font-variant:normal;font-weight:normal;font-stretch:normal;font-size:16.9333px;font-family:Rubik;-inkscape-font-specification:Rubik;fill:none;stroke:#ffffff;stroke-width:0.79375;stroke-miterlimit:4;stroke-dasharray:none;stroke-opacity:1"
         id="path869" />
    </g>
  </g>
</svg>
